# xmcd
#
# Track frame offsets: 
#        150
#        18230
#        39225
#        49410
#        66228
#        81549
#        98462
#        112177
#        132383
#        147402
#        159589
#
# Disc length: 2346 seconds
#
# Revision: 0
# Processed by: cddbd v1.5.2PL0 Copyright (c) Steve Scherf et al.
# Submitted via: ExactAudioCopyFreeDBPlugin 1.0
#
DISCID=9909280b
DTITLE=John Denver - Autograph
DYEAR=1980
DGENRE=Country
TTITLE0=Dancing With The Mountains
TTITLE1=The Mountain Song
TTITLE2=How Mountain Girls Can Love
TTITLE3=Song For The Life
TTITLE4=The Ballad Of St. Anne's Reel
TTITLE5=In My Heart
TTITLE6=Wrangell Mountain Song 
TTITLE7=Whalebones And Crosses
TTITLE8=American Child
TTITLE9=You Say That Battle Is Over
TTITLE10=Autograph
EXTD=
EXTT0=
EXTT1=
EXTT2=
EXTT3=
EXTT4=
EXTT5=
EXTT6=
EXTT7=
EXTT8=
EXTT9=
EXTT10=
PLAYORDER=
